<svg xmlns="http://www.w3.org/2000/svg" viewBox="0 0 868.4 628" enable-background="new 0 0 868.4 628"><path fill="none" d="M325.1 122.7h218.7v23.6h-218.7z"/><text transform="translate(345.074 134.144)" fill="#244a61" font-family="'Arial','Arial-BoldMT'" font-weight="bold" font-size="16">Your device or gateway</text><path stroke="#244a61" stroke-miterlimit="10" fill="none" d="M353.2.5h148v98h-148z"/><path fill="#244a61" d="M519.7 7h-24v19h24v-19zm-15.9 6.4l7.9-.9v-1.7l-7.9-.8v-.7l8.2 1.2-.1.5h-.2v2h.2v.1l-8.2 1 .1-.7zm0 7.5l7.9-.9v-1.7l-7.9-.8v-.7l8.2 1-.1.3h-.2v3h.2v-.2l-8.2.9.1-.9zM494.7 64h11v11h-11zM506.7 66h3v7h-3zM510.7 68h4v4h-4zM494.7 79h11v10h-11zM506.7 81h3v6h-3zM510.7 82h4v4h-4zM376.7 89h-17v15h17v-15zm-14 6v-4h4v4h-4zm7 0v-4h4v4h-4z"/><path stroke="#244a61" stroke-miterlimit="10" fill="none" d="M447.2 69.5h17v16h-17z"/><g fill="#244a61"><circle cx="455.6" cy="73" r=".9"/><circle cx="455.6" cy="81.1" r=".9"/><circle cx="455.6" cy="77.1" r=".9"/></g><g fill="#244a61"><circle cx="459.7" cy="73" r=".9"/><circle cx="459.7" cy="81.1" r=".9"/><circle cx="459.7" cy="77.1" r=".9"/></g><g fill="#244a61"><circle cx="451.6" cy="73" r=".9"/><circle cx="451.6" cy="81.1" r=".9"/><circle cx="451.6" cy="77.1" r=".9"/></g><path fill="#244a61" d="M477.8 84.2l1.2-1.5 1.7.8.4-1.9h1.9l-.4-1.9 1.7-.8-1.2-1.5 1.2-1.5-1.7-.8.4-1.9h-1.9l-.4-1.9-1.7.8-1.2-1.5-1.2 1.5-1.7-.8-.4 1.9h-1.9l.4 1.9-1.7.8 1.2 1.5-1.2 1.5 1.7.8-.4 1.9h1.9l.4 1.9 1.7-.8 1.2 1.5zm-.1-3.2v-7h1v7h-1zM432.3 43.3l1.2-1.5 1.7.8.4-1.9h1.9l-.4-1.9 1.7-.8-1.2-1.5 1.2-1.5-1.7-.8.4-1.9h-1.9l-.4-1.9-1.7.8-1.2-1.5-1.2 1.5-1.7-.8-.4 1.9h-1.9l.4 1.9-1.7.8 1.2 1.5-1.2 1.5 1.7.8-.4 1.9h1.9l.4 1.9 1.7-.8 1.2 1.5zm.4-2.3v-7h1v7h-1zM437.7 22h46v-15h-46v15zm45-7v3h-2v-3h2zm-4 0v3h-2v-3h2zm-4 0v3h-2v-3h2zm-4 0v3h-2v-3h2zm-3 0v3h-2v-3h2zm-4 0v3h-2v-3h2zm-4 0v3h-2v-3h2zm-4 0v3h-2v-3h2zm-3 0v3h-2v-3h2zm-4 0v3h-2v-3h2zm-3 0v3h-2v-3h2zm-4 0v3h-3v-3h3zm41-5v3h-2v-3h2zm-4 0v3h-2v-3h2zm-4 0v3h-2v-3h2zm-4 0v3h-2v-3h2zm-3 0v3h-2v-3h2zm-4 0v3h-2v-3h2zm-4 0v3h-2v-3h2zm-4 0v3h-2v-3h2zm-3 0v3h-2v-3h2zm-4 0v3h-2v-3h2zm-3 0v3h-2v-3h2zm-4 0v3h-3v-3h3zM409.7 72.4c0 1.4-1.2 2.6-2.6 2.6h-39.9c-1.4 0-2.6-1.2-2.6-2.6v-39.8c0-1.4 1.2-2.6 2.6-2.6h39.9c1.4 0 2.6 1.2 2.6 2.6v39.8z"/><g fill="#244a61"><path d="M410.7 35h4v1h-4zM410.7 36h4v1h-4zM410.7 40h4v1h-4zM410.7 46h4v1h-4zM410.7 48h4v1h-4zM410.7 49h4v1h-4zM410.7 51h4v1h-4zM410.7 55h4v1h-4zM410.7 59h4v1h-4zM410.7 61h4v1h-4zM410.7 62h4v1h-4zM410.7 64h4v1h-4zM410.7 66h4v2h-4zM410.7 68h4v1h-4zM410.7 70h4v1h-4z"/></g><g fill="#244a61"><path d="M359.7 35h4v1h-4zM359.7 36h4v1h-4zM359.7 40h4v1h-4zM359.7 46h4v1h-4zM359.7 48h4v1h-4zM359.7 49h4v1h-4zM359.7 51h4v1h-4zM359.7 55h4v1h-4zM359.7 59h4v1h-4zM359.7 61h4v1h-4zM359.7 62h4v1h-4zM359.7 64h4v1h-4zM359.7 66h4v2h-4zM359.7 68h4v1h-4zM359.7 70h4v1h-4z"/></g><g fill="#244a61"><path d="M415.7 26h1v4h-1zM410.7 26h1v4h-1zM407.7 26h1v4h-1zM405.7 26h1v4h-1zM404.7 26h1v4h-1zM402.7 26h1v4h-1zM397.7 26h1v4h-1zM391.7 26h1v4h-1zM389.7 26h1v4h-1zM383.7 26h1v4h-1zM378.7 26h1v4h-1z"/></g><g fill="#244a61"><path d="M404.7 77h1v4h-1zM399.7 77h1v4h-1zM396.7 77h1v4h-1zM394.7 77h1v4h-1zM393.7 77h1v4h-1zM391.7 77h1v4h-1zM386.7 77h1v4h-1zM380.7 77h1v4h-1zM378.7 77h1v4h-1zM372.7 77h1v4h-1zM367.7 77h1v4h-1z"/></g><circle stroke="#244a61" stroke-width=".858" stroke-miterlimit="10" cx="421.5" cy="27.7" r="1.5" fill="none"/><circle stroke="#244a61" stroke-width=".858" stroke-miterlimit="10" cx="410.5" cy="77.4" r="1.5" fill="none"/><circle stroke="#244a61" stroke-width=".858" stroke-miterlimit="10" cx="375.1" cy="27.7" r="1.5" fill="none"/><circle stroke="#244a61" stroke-width=".858" stroke-miterlimit="10" cx="364.1" cy="77.4" r="1.5" fill="none"/><path stroke="#244a61" stroke-miterlimit="10" fill="none" d="M374.2 7.5h11v10h-11z"/><circle fill="#244a61" cx="379.6" cy="12.1" r="2.9"/><path stroke="#244a61" stroke-miterlimit="10" fill="none" d="M394.2 7.5h11v10h-11z"/><circle fill="#244a61" cx="399.2" cy="12.1" r="2.9"/><g stroke="#244a61" stroke-width="1.516" stroke-miterlimit="10" fill="none"><circle cx="478.7" cy="47.3" r="3.4"/><circle cx="478.7" cy="33.7" r="3.4"/><circle cx="465.8" cy="47.3" r="3.4"/><circle cx="465.8" cy="33.7" r="3.4"/><circle cx="452.9" cy="47.3" r="3.4"/><circle cx="452.9" cy="33.7" r="3.4"/></g><g fill="#244a61"><path d="M429.7 86h6v3h-6zM436.7 86h3v3h-3zM424.7 86h4v3h-4zM429.7 75h6v3h-6zM436.7 75h3v3h-3zM424.7 75h4v3h-4zM429.7 64h6v3h-6zM436.7 64h3v3h-3zM424.7 64h4v3h-4zM429.7 52h6v4h-6zM436.7 52h3v4h-3zM424.7 52h4v4h-4z"/></g><g stroke="#244a61" stroke-linecap="round" stroke-miterlimit="10" fill="none"><path d="M719.8 259.7v70.2h-108.10000000000001M611.6 385.1l.1-110.6"/></g><path stroke="#244a61" stroke-linecap="round" stroke-miterlimit="10" fill="none" d="M565.7 50.1h143.9l10.2-.1v55.2M565.6 93.3l.1-88.5M300.4 4.4v88.6"/><g stroke="#244a61" stroke-linecap="round" stroke-miterlimit="10" fill="none"><path d="M266.5 328.8h-97.9M266.5 273.6v110.6"/></g><path stroke="#244a61" stroke-linecap="round" stroke-miterlimit="10" fill="none" d="M254.7 511.1h-150.5v-84.4"/><text transform="translate(699.52 206.466)" fill="#244a61" font-family="'Arial','Arial-BoldMT'" font-weight="bold" font-size="16">MQTT</text><text transform="translate(575.426 226.083)"><tspan x="0" y="0" fill="#244a61" font-family="'Arial','Arial-BoldMT'" font-weight="lighter" font-size="12">Your device data is sent securely up to the cloud using</tspan><tspan x="17.7" y="14.4" fill="#244a61" font-family="'Arial','Arial-BoldMT'" font-weight="lighter" font-size="12">the open, lightweight MQTT messaging protocol.</tspan></text><path fill="#244a61" d="M745.2 130.1c-4.3-4.3-10.3-7-17-7s-12.6 2.7-17 7c-4.3 4.3-7 10.3-7 17 0 2.1.3 4.1.8 6h-.8c-3.3 0-6.3 1.3-8.5 3.5s-3.5 5.2-3.5 8.5c0 3.5 1.3 6.7 3.5 9l8.5 9v-6c3.3 0 6.3-1.3 8.5-3.5 1.6-1.6 2.7-3.6 3.2-5.9 3.6 2.2 7.8 3.4 12.3 3.4v12l17-18c4.3-4.6 7-11 7-18 0-6.7-2.7-12.7-7-17zm-1.5 33.6l-13.5 14.3v-9h-2c-4.3 0-8.5-1.3-12-3.6v-.4c0-3.3-1.3-6.3-3.5-8.5-1.5-1.5-3.4-2.6-5.5-3.1-.6-2-.9-4.2-.9-6.4 0-5.9 2.3-11.4 6.4-15.6 4.2-4.2 9.7-6.4 15.6-6.4s11.4 2.3 15.6 6.4c4.2 4.2 6.4 9.7 6.4 15.6-.1 6.3-2.4 12.2-6.6 16.7z"/><circle fill="#244a61" cx="728.2" cy="147.1" r="3"/><circle fill="#244a61" cx="738.2" cy="147.1" r="3"/><circle fill="#244a61" cx="718.2" cy="147.1" r="3"/><text transform="translate(304.086 356.392)" fill="#244a61" font-family="'Arial','Arial-BoldMT'" font-weight="bold" font-size="16">IBM Internet of Things Foundation</text><g><g><path fill="#244a61" d="M435.7 278.8c0 .2-.2.4-.4.4h-1.9c-.2 0-.4-.2-.4-.4v-12.6c0-.2.2-.4.4-.4h1.9c.2 0 .4.2.4.4v12.6zM425 278.8c0 .2-.2.4-.4.4h-1.9c-.2 0-.4-.2-.4-.4v-12.6c0-.2.2-.4.4-.4h1.9c.2 0 .4.2.4.4v12.6zM446.5 278.6c0 .2-.2.4-.4.4h-1.9c-.2 0-.4-.2-.4-.4v-12.6c0-.2.2-.4.4-.4h1.9c.2 0 .4.2.4.4v12.6z"/></g><g><path fill="#244a61" d="M446.5 328.5c0 .2-.2.4-.4.4h-1.9c-.2 0-.4-.2-.4-.4v-12.6c0-.2.2-.4.4-.4h1.9c.2 0 .4.2.4.4v12.6zM425 328.7c0 .2-.2.4-.4.4h-1.9c-.2 0-.4-.2-.4-.4v-12.6c0-.2.2-.4.4-.4h1.9c.2 0 .4.2.4.4v12.6zM435.7 328.7c0 .2-.2.4-.4.4h-1.9c-.2 0-.4-.2-.4-.4v-12.6c0-.2.2-.4.4-.4h1.9c.2 0 .4.2.4.4v12.6z"/></g><g><path fill="#244a61" d="M416.9 298.7c0 .2-.2.4-.4.4h-12.6c-.2 0-.4-.2-.4-.4v-1.9c0-.2.2-.4.4-.4h12.6c.2 0 .4.2.4.4v1.9zM416.9 309.3c0 .2-.2.4-.4.4h-12.6c-.2 0-.4-.2-.4-.4v-1.9c0-.2.2-.4.4-.4h12.6c.2 0 .4.2.4.4v1.9zM416.6 285.2c.2 0 .4.2.4.4v1.9c0 .2-.2.4-.4.4h-12.6c-.2 0-.4-.2-.4-.4v-1.9c0-.2.2-.4.4-.4h12.6z"/></g><path fill="#244a61" d="M414.9 277.8v39.3h38.7v-39.3h-38.7zm19.4 27.7c-4.3 0-7.8-3.5-7.8-7.8s3.5-7.8 7.8-7.8 7.8 3.5 7.8 7.8-3.5 7.8-7.8 7.8z"/><g><path fill="#244a61" d="M465.1 298.7c0 .2-.2.4-.4.4h-12.6c-.2 0-.4-.2-.4-.4v-1.9c0-.2.2-.4.4-.4h12.6c.2 0 .4.2.4.4v1.9zM465.1 288c0 .2-.2.4-.4.4h-12.6c-.2 0-.4-.2-.4-.4v-1.9c0-.2.2-.4.4-.4h12.6c.2 0 .4.2.4.4v1.9zM452.3 309.4c-.2 0-.4-.2-.4-.4v-2c0-.2.2-.4.4-.4h12.6c.2 0 .4.2.4.4v1.9c0 .2-.2.4-.4.4h-12.6z"/></g></g><text transform="translate(279.642 376.902)"><tspan x="0" y="0" fill="#244a61" font-family="'Arial','Arial-BoldMT'" font-weight="lighter" font-size="12">This is the hub of all things IBM IoT. This is where you can</tspan><tspan x="7.6" y="14.4" fill="#244a61" font-family="'Arial','Arial-BoldMT'" font-weight="lighter" font-size="12">setup and manage your connected devices so that your</tspan><tspan x="34.3" y="28.8" fill="#244a61" font-family="'Arial','Arial-BoldMT'" font-weight="lighter" font-size="12">apps can access their live and historical data.</tspan></text><text transform="translate(24.484 377.313)" fill="#244a61" font-family="'Arial','Arial-BoldMT'" font-weight="bold" font-size="16">REST &amp; Real-time APIs</text><g fill="#244a61"><path d="M108.3 321.9c-.2 0-.4-.1-.5-.2-.1-.1-.1-.4-.1-.7v-6c0-.6-.1-1.1-.4-1.6-.3-.4-.6-.8-1.1-1-.4-.3-.9-.5-1.5-.6-.6-.1-1.1-.2-1.7-.2-.6 0-1.3.1-1.9.2-.6.1-1.2.3-1.7.6s-.9.7-1.2 1.2c-.3.5-.5 1.1-.5 1.9h2.6c.1-.6.3-1.1.8-1.4.5-.3 1.1-.5 1.8-.5.3 0 .5 0 .8.1.3 0 .5.1.8.2.2.1.4.3.6.5.2.2.2.5.2.8 0 .4-.1.7-.3.8-.2.2-.4.3-.8.4-.3.1-.7.2-1.1.2-.4 0-.9.1-1.3.2-.5.1-1.1.1-1.6.3-.5.1-1 .3-1.4.6-.4.3-.8.6-1 1.1-.3.5-.4 1-.4 1.8 0 .6.1 1.1.3 1.5.2.4.5.8.9 1.1.4.3.8.5 1.3.6.5.1 1 .2 1.5.2.7 0 1.4-.1 2.2-.3.7-.2 1.4-.6 1.9-1.1.1.5.3.9.7 1.1.3.2.8.3 1.3.3h.4c.2 0 .3 0 .5-.1.2 0 .3-.1.4-.1.1 0 .3-.1.3-.1v-1.8h-.8zm-3.2-2.2c0 .4-.1.7-.3 1-.2.3-.4.5-.7.7-.3.2-.6.3-.9.4-.3.1-.6.1-.9.1-.2 0-.5 0-.8-.1-.3 0-.5-.1-.8-.2-.2-.1-.4-.3-.6-.5-.2-.2-.2-.4-.2-.7 0-.3.1-.6.2-.8.1-.2.3-.4.5-.6.2-.1.4-.3.7-.3l.8-.2c.6-.1 1.1-.2 1.7-.2.6-.1 1.1-.2 1.4-.5v1.9zM120.7 313.4c-.5-.6-1-1-1.7-1.3-.7-.3-1.5-.5-2.4-.5-.8 0-1.5.1-2.1.4-.6.3-1.2.8-1.5 1.5v-1.6h-2.4v16h2.6v-5.8c.2.3.4.6.7.8.3.2.6.4 1 .6.3.2.7.3 1.1.3.4.1.8.1 1.1.1.9 0 1.6-.2 2.2-.5.6-.3 1.2-.8 1.6-1.4.4-.6.7-1.2.9-2 .2-.7.3-1.5.3-2.3 0-.9-.1-1.7-.3-2.4-.3-.6-.7-1.3-1.1-1.9zm-1.4 5.9c-.1.5-.3.9-.6 1.3s-.6.7-1 .9c-.4.2-.9.4-1.5.4-.5 0-1-.1-1.4-.3-.4-.2-.7-.5-1-.9-.3-.4-.5-.8-.6-1.3-.1-.5-.2-1-.2-1.6 0-1.2.3-2.2.8-3 .5-.8 1.4-1.1 2.4-1.1.5 0 1 .1 1.4.3.4.2.7.5 1 .9.3.4.5.8.6 1.3.1.5.2 1 .2 1.5.1.6 0 1.1-.1 1.6zM124.3 307.5h2.6v2.4h-2.6zM124.3 311.9h2.6v11.7h-2.6zM83.1 293.2v58.6h58.7v-58.6h-58.7zm2.2 2.3h54.1v45.1h-54.1v-45.1z"/></g><text transform="translate(-.331 394.931)"><tspan x="0" y="0" fill="#244a61" font-family="'Arial','Arial-BoldMT'" font-weight="lighter" font-size="12">Use our secure APIs to connect your apps</tspan><tspan x="6.7" y="14.4" fill="#244a61" font-family="'Arial','Arial-BoldMT'" font-weight="lighter" font-size="12">with the data coming from your devices.</tspan></text><g fill="#244a61"><path d="M289.1 480.5v58.599999999999994h58.7v-58.599999999999994h-58.7zm56.3 56.3h-54v-16.4h54v16.4zm0-18.7h-54v-16.4h54v16.4zm-8.2-30.5c1.9 0 3.5 1.6 3.5 3.5s-1.6 3.5-3.5 3.5-3.5-1.6-3.5-3.5c0-2 1.5-3.5 3.5-3.5z"/><circle cx="337.2" cy="509.8" r="3.5"/><circle cx="337.2" cy="528.6" r="3.5"/></g><text transform="translate(245.026 154.92)"><tspan x="0" y="0" fill="#244a61" font-family="'Arial','Arial-BoldMT'" font-weight="lighter" font-size="12">We start with your device, be it a sensor, a gateway or something else.</tspan><tspan x="43.3" y="14.4" fill="#244a61" font-family="'Arial','Arial-BoldMT'" font-weight="lighter" font-size="12">To find out how to get it connected, search our recipes.</tspan></text><text transform="translate(287.587 609.74)"><tspan x="0" y="0" fill="#244a61" font-family="'Arial','Arial-BoldMT'" font-weight="lighter" font-size="12">Create applications within IBM Bluemix, another cloud,</tspan><tspan x="-27" y="14.4" fill="#244a61" font-family="'Arial','Arial-BoldMT'" font-weight="lighter" font-size="12">or your own servers to interpret the data you now have access to!</tspan></text><g stroke="#244a61" stroke-linecap="round" stroke-miterlimit="10" fill="none"><path d="M254.7 467.9v85.6M612.6 553.9l.1-85.6"/></g><path fill="#244a61" d="M381 293.8c-.7-6.7-6.3-11.9-13.2-11.9-6.6 0-12 4.8-13.1 11.1-.6-.1-1.2-.1-1.8-.1-6.5 0-11.7 5.2-11.7 11.7 0 6.5 5.2 11.7 11.7 11.7h23.5c6.5 0 11.7-5.2 11.7-11.7 0-4.9-2.9-9-7.1-10.8zm-4.6 19.4h-23.5c-4.7 0-8.6-3.9-8.6-8.6 0-4.7 3.9-8.6 8.6-8.6.4 0 .8 0 1.3.1l3 .5.5-3c.8-4.9 5-8.5 10-8.5 5.2 0 9.6 3.9 10.1 9.1l.2 1.8 1.7.7c3.2 1.4 5.2 4.5 5.2 7.9.1 4.7-3.8 8.6-8.5 8.6zM517.2 293.8c-.7-6.7-6.3-11.9-13.2-11.9-6.6 0-12 4.8-13.1 11.1-.6-.1-1.2-.1-1.8-.1-6.5 0-11.7 5.2-11.7 11.7 0 6.5 5.2 11.7 11.7 11.7h23.5c6.5 0 11.7-5.2 11.7-11.7.1-4.9-2.9-9-7.1-10.8zm-4.6 19.4h-23.5c-4.7 0-8.6-3.9-8.6-8.6 0-4.7 3.9-8.6 8.6-8.6.4 0 .8 0 1.3.1l3 .5.5-3c.8-4.9 5-8.5 10-8.5 5.2 0 9.6 3.9 10.1 9.1l.2 1.8 1.7.7c3.2 1.4 5.2 4.5 5.2 7.9.1 4.7-3.7 8.6-8.5 8.6z"/><text transform="translate(310.977 588.182)" fill="#244a61" font-family="'Arial','Arial-BoldMT'" font-weight="bold" font-size="16">Your application and analytics</text><g fill="#244a61"><path d="M527.8 533.4v-42h-2v44h60v-2zM531.8 513.4h14v16h-14zM563.8 497.4h-14v32h14v-32zm-2 30h-10v-28h10v28zM567.8 507.4h14v2h-14zM567.8 511.4h14v2h-14zM567.8 515.4h14v2h-14zM567.8 519.4h14v2h-14zM567.8 523.4h14v2h-14zM567.8 527.4h14v2h-14z"/></g><g fill="#244a61"><path d="M436.9 543.4l-9.2-16.1 9.2-16h18.6l9.2 16-9.2 16.1zM436.9 511.4l-9.2-16.1 9.2-16h18.6l9.2 16-9.2 16.1zM409.2 527.4l-9.3-16.1 9.3-16h18.5l9.2 16-9.2 16.1z"/></g><path fill="#1D3649" d="M419.9 511.3c0 2.2.4 4.5 1.3 6.6.9 2 2.1 3.8 3.7 5.4.4.4.7.7 1.1.9v-26.2c-.4.3-.8.7-1.1.9-1.6 1.6-2.8 3.4-3.7 5.4-.9 2.5-1.3 4.8-1.3 7z"/><path fill="#00B4A0" d="M449 499.3c-1.6-1.6-3.4-2.8-5.4-3.7-2.1-.9-4.4-1.3-6.6-1.3-2 0-4 .4-5.8 1.1l22.8 13.1c-.3-1.3-.5-2.5-1.1-3.7-1-2.1-2.3-4-3.9-5.5zM429 496.2l8.3 14.4h16.7v-.5l-24.5-14.1c-.2.1-.4.1-.5.2z"/><path fill="#5AAAFA" d="M454 512.1h-16.8l-8.3 14.4c.1.1.3.1.5.3l24.5-14.2c.1-.2.1-.4.1-.5zM443.6 527.2c2-.9 3.8-2.1 5.4-3.7 1.6-1.6 2.8-3.4 3.7-5.4.5-1.2.9-2.4 1.1-3.7l-22.8 13c1.9.7 3.8 1.1 5.8 1.1 2.4 0 4.6-.5 6.8-1.3z"/><path fill="#1D3649" d="M436.2 511.3l-8.3-14.4-.5.3v28.3c.1.1.3.3.4.3l8.4-14.5z"/><path fill="#5A6464" d="M437.3 512.1z"/><path fill="#00B4A0" d="M436.9 492.9c9.5 0 17.2 7.1 18.3 16.3 0 .3 0 .5.1.8l8.5-14.6-8.9-15.2h-17.6l-8.5 14.7.8-.4c2.3-1.1 4.7-1.6 7.3-1.6z"/><path fill="#5AAAFA" d="M455.3 512.6c0 .3 0 .5-.1.8-1.1 9.1-8.9 16.3-18.3 16.3-2.6 0-5-.5-7.3-1.5l-.8-.4 8.5 14.7h17.6l8.9-15.2-8.5-14.7z"/><path fill="#1D3649" d="M426.6 496.1h-16.9l-8.9 15.2 8.9 15.2h16.9c-.3-.1-.4-.3-.7-.5-4.5-3.3-7.4-8.7-7.4-14.8s2.9-11.4 7.4-14.8c.2 0 .5-.2.7-.3z"/></svg>